<svg width="108" height="26" viewBox="0 0 108 26" xmlns="http://www.w3.org/2000/svg">
  <path fill-rule="evenodd" clip-rule="evenodd" d="M24.8196 15.1278C24.9382 14.4363 25 13.7253 25 13C25 6.09644 19.4036 0.5 12.5 0.5C8.31396 0.5 4.6085 2.55766 2.33991 5.71671C3.60762 5.54137 4.86107 5.62264 6.10323 5.93808C9.23662 6.73379 11.9017 8.9669 14.0623 10.7857L14.2343 10.9306C16.5219 12.857 18.38 14.4217 20.3729 15.1628C21.6644 15.6431 23.0789 15.7956 24.8196 15.1278ZM22.443 20.5765C20.1592 23.5691 16.5551 25.5 12.5 25.5C5.59644 25.5 0 19.9036 0 13C0 12.6428 0.0149802 12.2892 0.0443467 11.9396C2.10785 10.528 3.63023 10.4688 4.87256 10.7843C6.70365 11.2493 8.50642 12.6444 10.8421 14.6108C10.9808 14.7275 11.1215 14.8464 11.2643 14.9671L11.2643 14.9671C13.3148 16.7 15.7925 18.794 18.6301 19.8493C19.8564 20.3053 21.1271 20.564 22.443 20.5765Z" fill="#3CDDF3"/>
  <path d="M39.4058 20.4032C38.2775 20.4032 37.3007 20.1908 36.4755 19.7661C35.6672 19.3413 35.0525 18.7892 34.6315 18.1096C34.2105 17.413 34 16.6825 34 15.9179V15.765H37.4102V15.9179C37.4102 16.3767 37.587 16.7844 37.9406 17.1412C38.2943 17.498 38.8079 17.6764 39.4815 17.6764C40.0373 17.6764 40.4835 17.5489 40.8203 17.2941C41.174 17.0223 41.3508 16.657 41.3508 16.1983C41.3508 15.7905 41.1993 15.4677 40.8961 15.2299C40.593 14.992 40.2141 14.8391 39.7594 14.7712L38.2438 14.4653C37.2502 14.2785 36.3492 13.8792 35.5409 13.2676C34.7326 12.656 34.3284 11.73 34.3284 10.4898C34.3284 9.2156 34.7915 8.22171 35.7177 7.50816C36.6439 6.77761 37.8312 6.41234 39.2795 6.41234C40.3404 6.41234 41.2582 6.60771 42.0329 6.99847C42.8075 7.38923 43.3969 7.90741 43.8011 8.55301C44.2053 9.18162 44.4073 9.86120 44.4073 10.59170V10.6937H40.9972V10.6172C40.9972 10.2095 40.8456 9.83571 40.5425 9.49592C40.2394 9.13914 39.7762 8.96076 39.1532 8.96076C38.6311 8.96076 38.2101 9.09667 37.8901 9.36850C37.5702 9.64033 37.4102 9.99711 37.4102 10.43880C37.4102 10.8466 37.5702 11.1694 37.8901 11.40720C38.2269 11.64510 38.6395 11.80650 39.1279 11.89140L40.7951 12.22270C41.8729 12.46060 42.7822 12.89380 43.5232 13.52240C44.2642 14.13400 44.6347 15.00900 44.6347 16.14730C44.6347 16.99680 44.4073 17.74430 43.9527 18.38990C43.4980 19.03550 42.8665 19.53670 42.0581 19.89350C41.2666 20.23330 40.3825 20.40320 39.4058 20.40320Z" fill="#ffffff"/>
  <path d="M53.8331 20.4032C52.7048 20.4032 51.8207 20.1398 51.1807 19.6131C50.5408 19.0865 50.0693 18.5088 49.7661 17.8802H49.564V25.5H46.0528V6.74363H49.564V8.83333H49.7661C50.0356 8.25569 50.4903 7.71203 51.1302 7.20234C51.7701 6.67567 52.6627 6.41234 53.8078 6.41234C55.5087 6.41234 56.8138 7.04944 57.7232 8.32365C58.6494 9.59786 59.1125 11.3053 59.1125 13.44600C59.1125 15.53570 58.6494 17.21760 57.7232 18.49180C56.8138 19.76610 55.5171 20.40320 53.8331 20.40320ZM52.5701 17.59990C53.5805 17.59990 54.3299 17.19220 54.8182 16.37670C55.3235 15.56120 55.5761 14.57580 55.5761 13.42050C55.5761 12.29920 55.3235 11.33930 54.8182 10.54080C54.3299 9.72528 53.5805 9.31753 52.5701 9.31753C51.5765 9.31753 50.8271 9.72528 50.3219 10.54080C49.8167 11.35630 49.5640 12.32470 49.5640 13.44600C49.5640 14.58430 49.8167 15.56120 50.3219 16.37670C50.8271 17.19220 51.5765 17.59990 52.5701 17.59990Z" fill="#ffffff"/>
  <path d="M66.7947 20.4032C65.3969 20.4032 64.2181 20.0889 63.2582 19.4602C62.3152 18.8146 61.6079 17.9652 61.1363 16.9118C60.6648 15.8585 60.4290 14.7032 60.4290 13.4460C60.4290 12.1888 60.6564 11.0335 61.1111 9.9801C61.5826 8.9098 62.2983 8.0518 63.2582 7.4062C64.2181 6.7606 65.3969 6.4378 66.7947 6.4378C68.1924 6.4378 69.3713 6.7606 70.3312 7.4062C71.2911 8.0348 72.0068 8.8758 72.4783 9.9292C72.9498 10.9825 73.1856 12.1378 73.1856 13.3950C73.1856 14.6522 72.9498 15.8160 72.4783 16.8863C72.0068 17.9397 71.2911 18.7892 70.3312 19.4348C69.3713 20.0804 68.1924 20.4032 66.7947 20.4032ZM66.7947 17.5489C67.7714 17.5489 68.5040 17.1582 68.9924 16.3767C69.4976 15.5782 69.7502 14.5843 69.7502 13.3950C69.7502 12.2057 69.4976 11.2288 68.9924 10.4643C68.5040 9.6828 67.7714 9.2920 66.7947 9.2920C65.8180 9.2920 65.0854 9.6828 64.5970 10.4643C64.1087 11.2288 63.8645 12.2057 63.8645 13.3950C63.8645 14.5843 64.1087 15.5782 64.5970 16.3767C65.1022 17.1582 65.8348 17.5489 66.7947 17.5489Z" fill="#ffffff"/>
  <path d="M74.8759 6.7436H78.3366V8.8843H78.5134C78.7323 8.2897 79.1365 7.7885 79.7259 7.3807C80.3153 6.9560 81.0732 6.7436 81.9994 6.7436C82.3530 6.7436 82.6561 6.7776 82.9088 6.8456L82.7572 10.0821C82.3362 9.9631 81.8899 9.9037 81.4184 9.9037C80.3743 9.9037 79.5996 10.1840 79.0944 10.7446C78.5892 11.2883 78.3366 12.1972 78.3366 13.4715V20.1993H74.8759V6.7436Z" fill="#ffffff"/>
  <path d="M88.661 9.4959V15.4847C88.661 16.0793 88.6863 16.5211 88.7368 16.8099C88.8042 17.0987 88.9726 17.3281 89.242 17.498C89.5115 17.6679 89.9493 17.7528 90.5556 17.7528C90.9092 17.7528 91.2713 17.7188 91.6418 17.6509V20.0974C91.4565 20.1313 91.1197 20.1738 90.6314 20.2248C90.1598 20.2757 89.6967 20.3012 89.242 20.3012C88.0127 20.3012 87.0949 20.1228 86.4886 19.7661C85.8992 19.3923 85.5287 18.9336 85.3772 18.3899C85.2256 17.8293 85.1498 17.1157 85.1498 16.2492V9.4959H82.9269V6.7436H85.1751V2.3604H88.661V6.7436H91.6418V9.4959H88.661Z" fill="#ffffff"/>
  <path d="M93.8116 6.7436H97.2976V20.1993H93.8116V6.7436ZM95.5294 4.4246C94.9736 4.4246 94.5105 4.2377 94.14 3.8639C93.7695 3.4732 93.5843 3.0059 93.5843 2.4623C93.5843 1.9016 93.7695 1.4344 94.14 1.0607C94.5105 0.6869 94.9736 0.5000 95.5294 0.5000C96.0851 0.5000 96.5482 0.6954 96.9187 1.0861C97.2892 1.4599 97.4744 1.9186 97.4744 2.4623C97.4744 3.0059 97.2892 3.4732 96.9187 3.8639C96.5482 4.2377 96.0851 4.4246 95.5294 4.4246Z" fill="#ffffff"/>
  <path d="M104.703 9.4959V15.4847C104.703 16.0793 104.729 16.5211 104.779 16.8099C104.847 17.0987 105.015 17.3281 105.284 17.498C105.554 17.6679 105.992 17.7528 106.599 17.7528C106.953 17.7528 107.315 17.7188 107.686 17.6509V20.0974C107.501 20.1313 107.164 20.1738 106.676 20.2248C106.204 20.2757 105.741 20.3012 105.286 20.3012C104.057 20.3012 103.139 20.1228 102.532 19.7661C101.943 19.3923 101.573 18.9336 101.422 18.3899C101.271 17.8293 101.196 17.1157 101.196 16.2492V9.4959H98.9734V6.7436H101.222V2.3604H104.703V6.7436H107.686V9.4959H104.703Z" fill="#ffffff"/>
</svg>